<svg width="96" height="96" viewBox="0 0 96 96" fill="none" xmlns="http://www.w3.org/2000/svg">
<circle cx="47.9998" cy="48" r="39.2727" fill="#536DFE" fill-opacity="0.2"/>
<g filter="url(#filter0_d_4338_8431)">
<path d="M21.8184 29.8182C21.8184 25.3999 25.4001 21.8182 29.8184 21.8182H66.182C70.6003 21.8182 74.182 25.3999 74.182 29.8182V66.1818C74.182 70.6001 70.6003 74.1818 66.182 74.1818H29.8184C25.4001 74.1818 21.8184 70.6001 21.8184 66.1818V29.8182Z" fill="white"/>
</g>
<rect x="26.1816" y="33.4545" width="43.6364" height="36.3636" rx="6" fill="#FF5C5C"/>
<path fill-rule="evenodd" clip-rule="evenodd" d="M27.6186 26.1819C28.4218 26.1725 29.0812 26.8154 29.0906 27.6185C29.1007 28.4222 28.4576 29.0807 27.6544 29.0908C26.8505 29.1003 26.1919 28.4573 26.1817 27.6543C26.1723 26.8506 26.8154 26.1921 27.6186 26.1819ZM31.9822 26.1819C32.7855 26.1725 33.4448 26.8154 33.4542 27.6185C33.4644 28.4222 32.8213 29.0807 32.0181 29.0908C31.2142 29.1003 30.5555 28.4573 30.5454 27.6543C30.5359 26.8506 31.179 26.1921 31.9822 26.1819ZM37.8179 27.6185C37.8084 26.8154 37.1491 26.1725 36.3459 26.1819C35.5427 26.1921 34.8996 26.8506 34.909 27.6543C34.9191 28.4573 35.5778 29.1003 36.3817 29.0908C37.1849 29.0807 37.828 28.4222 37.8179 27.6185Z" fill="#E0E0E0"/>
<path fill-rule="evenodd" clip-rule="evenodd" d="M57.2429 42.3849C59.7421 44.8454 61.0908 48.1392 61.0908 51.6314C61.0908 55.1237 59.7421 58.4175 57.2429 60.8779C54.704 63.4574 51.3718 64.7273 47.9999 64.7273C44.6677 64.7273 41.2958 63.4574 38.7569 60.8779C36.2578 58.4175 34.909 55.1237 34.909 51.6314C34.909 48.1392 36.2578 44.8454 38.7569 42.3849C43.8346 37.2656 52.1652 37.2656 57.2429 42.3849ZM55.0215 58.6556C56.8859 56.7904 57.9173 54.2903 57.9173 51.6314C57.9173 49.5281 57.2429 47.5042 56.0529 45.8375L42.2082 59.6874C43.8744 60.8779 45.8975 61.5525 48 61.5525C50.6578 61.5525 53.157 60.5207 55.0215 58.6556ZM53.7916 43.5754L39.947 57.4253C38.7569 55.7585 38.0825 53.7346 38.0825 51.6314C38.0825 48.9725 39.1139 46.4724 40.9784 44.6072C42.8428 42.742 45.342 41.7102 47.9998 41.7102C50.1023 41.7102 52.1255 42.3849 53.7916 43.5754Z" fill="white"/>
<path d="M33.0908 51.2727C33.0908 43.2395 39.603 36.7273 47.6363 36.7273" stroke="white" stroke-width="2" stroke-miterlimit="10"/>
<defs>
<filter id="filter0_d_4338_8431" x="17.5066" y="19.6623" width="60.9873" height="60.9871" filterUnits="userSpaceOnUse" color-interpolation-filters="sRGB">
<feFlood flood-opacity="0" result="BackgroundImageFix"/>
<feColorMatrix in="SourceAlpha" type="matrix" values="0 0 0 0 0 0 0 0 0 0 0 0 0 0 0 0 0 0 127 0" result="hardAlpha"/>
<feOffset dy="2.15588"/>
<feGaussianBlur stdDeviation="2.15588"/>
<feColorMatrix type="matrix" values="0 0 0 0 0.054902 0 0 0 0 0.117647 0 0 0 0 0.243137 0 0 0 0.08 0"/>
<feBlend mode="normal" in2="BackgroundImageFix" result="effect1_dropShadow_4338_8431"/>
<feBlend mode="normal" in="SourceGraphic" in2="effect1_dropShadow_4338_8431" result="shape"/>
</filter>
</defs>
</svg>
