<svg width="24" height="24" viewBox="0 0 24 24" fill="none" xmlns="http://www.w3.org/2000/svg">
<path d="M14.9995 22.9992C14.6225 22.9992 14.2745 22.7862 14.1045 22.4462L11.1365 16.5102C10.9735 16.1842 11.0015 15.7942 11.2085 15.4932L15.9995 8.99916L9.50453 13.7892C9.20353 13.9972 8.81353 14.0232 8.48753 13.8612L2.55253 10.8942C2.19653 10.7152 1.97953 10.3422 2.00153 9.94416C2.02253 9.54616 2.27953 9.19816 2.65353 9.06116L21.6535 2.06116C22.0185 1.92816 22.4295 2.01516 22.7065 2.29216C22.9825 2.56716 23.0725 2.97916 22.9375 3.34516L15.9375 22.3452C15.7995 22.7192 15.4525 22.9762 15.0545 22.9972C15.0365 22.9982 15.0175 22.9992 14.9995 22.9992Z" fill="#9E9E9E"/>
</svg>
