<svg width="24" height="24" viewBox="0 0 24 24" fill="none" xmlns="http://www.w3.org/2000/svg">
<path fill-rule="evenodd" clip-rule="evenodd" d="M19.3333 6.33378H17.7367C17.8973 6.01618 17.9872 5.66749 18 5.31178C17.9769 4.68295 17.7077 4.08836 17.2505 3.65605C16.7932 3.22375 16.1845 2.98831 15.5553 3.00045C14.806 3.03272 14.0794 3.26788 13.4532 3.68083C12.8271 4.09377 12.3248 4.669 12 5.34511C11.6787 4.67089 11.1802 4.09663 10.5579 3.68367C9.93558 3.2707 9.21276 3.03456 8.46667 3.00045H8.39067C7.77053 3.00144 7.17494 3.24283 6.7291 3.67388C6.28326 4.10492 6.02191 4.69203 6 5.31178V5.35578C6.01301 5.69614 6.09918 6.02971 6.25267 6.33378H4.66667C4.48986 6.33378 4.32029 6.40402 4.19526 6.52904C4.07024 6.65407 4 6.82364 4 7.00045V9.00045C4 9.17726 4.07024 9.34683 4.19526 9.47185C4.32029 9.59688 4.48986 9.66711 4.66667 9.66711H19.3333C19.5101 9.66711 19.6797 9.59688 19.8047 9.47185C19.9298 9.34683 20 9.17726 20 9.00045V7.00045C20 6.82364 19.9298 6.65407 19.8047 6.52904C19.6797 6.40402 19.5101 6.33378 19.3333 6.33378ZM15.576 4.33378C15.8483 4.32672 16.113 4.42409 16.3158 4.60594C16.5186 4.78779 16.6441 5.04033 16.6667 5.31178C16.6572 5.58466 16.5427 5.84334 16.347 6.03378C16.1514 6.22423 15.8897 6.33171 15.6167 6.33378H12.9853C13.4 5.49445 14.2247 4.33378 15.576 4.33378ZM7.33333 5.33378C7.3504 5.06097 7.47155 4.80513 7.67177 4.61905C7.87199 4.43297 8.13601 4.33086 8.40933 4.33378C9.78867 4.33911 10.5967 5.48778 11.016 6.33378H8.416C8.14226 6.33584 7.87801 6.23362 7.67691 6.04788C7.47582 5.86214 7.35298 5.60682 7.33333 5.33378ZM13.3337 11.0004V19.0004H16.6671C17.1975 19.0004 17.7062 18.7897 18.0813 18.4146C18.4563 18.0395 18.6671 17.5308 18.6671 17.0004V11.0004H13.3337ZM5.33386 11.0004H10.6672V19.0004H7.33386C6.80343 19.0004 6.29472 18.7897 5.91965 18.4146C5.54458 18.0395 5.33386 17.5308 5.33386 17.0004V11.0004Z" fill="#9E9E9E"/>
</svg>
