<svg xmlns="http://www.w3.org/2000/svg" viewBox="0 0 24 24"><defs><style>.cls-1{fill:#c9c9c9;}</style></defs><g id="_5" data-name="5"><path class="cls-1" d="M12,3.51A9,9,0,0,0,5.3,12,9,9,0,0,0,12,20.49,9,9,0,0,0,18.7,12,9,9,0,0,0,12,3.51Zm1.2,14.65L13,15.62l2.47-3.24a.29.29,0,0,0,0-.32.28.28,0,0,0-.37-.05l-2.29,1.75L12.3,9.18A.31.31,0,0,0,12,8.91a.3.3,0,0,0-.33.27l-.46,4.58L9,12a.29.29,0,0,0-.32,0,.28.28,0,0,0-.05.37l2.47,3.24-.26,2.54A7.14,7.14,0,0,1,7,12a7.25,7.25,0,0,1,5-6.71A7.25,7.25,0,0,1,17,12,7.13,7.13,0,0,1,13.2,18.16Z"/></g></svg>