<svg id="layer-1" data-name="layer-1" xmlns="http://www.w3.org/2000/svg" xmlns:xlink="http://www.w3.org/1999/xlink" viewBox="0 0 143.08 143.08"><defs><style>.cls-1{fill:none;}.cls-2{clip-path:url(#clip-path);}.cls-3{fill:url(#linear-gradient);}.cls-4{fill:#7a4200;}.cls-5{fill:#8a5100;}.cls-6{clip-path:url(#clip-path-2);}.cls-7{fill:#77ca00;}.cls-8{fill:#63a600;}</style><clipPath id="clip-path"><rect class="cls-1" width="143.08" height="143.08" rx="32.14"/></clipPath><linearGradient id="linear-gradient" x1="-136.52" y1="-287.45" x2="-136.38" y2="-287.45" gradientTransform="matrix(0, 710.98, 710.98, 0, 204446.34, 97064.5)" gradientUnits="userSpaceOnUse"><stop offset="0" stop-color="#c6ff89"/><stop offset="0.45" stop-color="#df8"/><stop offset="1" stop-color="#f5ff87"/></linearGradient><clipPath id="clip-path-2"><rect class="cls-1" width="143.08" height="143.08"/></clipPath></defs><g class="cls-2"><rect class="cls-3" width="143.08" height="143.08"/><rect class="cls-4" y="107.1" width="143.08" height="35.98"/><path class="cls-5" d="M111,94.81H32.14C14.39,94.81,0,99.76,0,105.87v2.46c0,6.11,14.39,11.07,32.14,11.07H111c17.75,0,32.13-5,32.13-11.07v-2.46c0-6.11-14.38-11.06-32.13-11.06"/></g><g class="cls-6"><path class="cls-7" d="M74.61,97.47s-.37-12.75,2.84-13S83,88.05,91.78,87.25c11.72-1.07,19.59-12.28,21.59-23a23.06,23.06,0,0,1-9.7,4.38c-6,.87-12-1.71-19.59.91-5.57,1.93-8.56,9-9,14.16A32,32,0,0,0,72.6,96.84Z"/><path class="cls-8" d="M75.12,83.65A32,32,0,0,0,72.6,96.84h.85s.41-8.6,1.67-13.19"/><path class="cls-7" d="M71.38,106.15a89.47,89.47,0,0,0,1-10.28c0-3.94.31-13.4-5.61-12.81-3.35.34-14.07.78-20.87-4.58-8.08-6.36-9.6-18.75-18.94-22.17,0,0,18.85-4.37,32.92,4.09C68.56,65.65,70,72,70.05,81.19a13.93,13.93,0,0,1,3.72,7.08,85.93,85.93,0,0,1,1.59,17.88Z"/><path class="cls-8" d="M66.73,83.06s4.71-1.18,5.87,6c.7,4.34.58,10.23,0,17.07H71.38a89.47,89.47,0,0,0,1-10.28c0-3.94.31-13.4-5.61-12.81"/><path class="cls-8" d="M68.93,81.26c-.12-.24-.25-.48-.38-.72s-.26-.47-.4-.7c-.27-.46-.55-.91-.84-1.36-.59-.89-1.21-1.75-1.87-2.58s-1.35-1.63-2.07-2.39a31.35,31.35,0,0,0-2.28-2.18c-.79-.69-1.61-1.35-2.46-2-.42-.32-.87-.6-1.3-.91-.21-.15-.44-.28-.66-.43s-.45-.29-.68-.42a55.62,55.62,0,0,0-5.69-3,23.32,23.32,0,0,1,6.22,2c.25.11.49.24.73.37l.73.39c.47.28,1,.56,1.4.87s.91.63,1.35,1c.22.16.44.34.65.51l.32.27.31.27c.42.36.82.74,1.21,1.13s.77.79,1.13,1.21a23.91,23.91,0,0,1,2,2.64,21.92,21.92,0,0,1,1.58,2.89c.22.51.42,1,.59,1.53a10.86,10.86,0,0,1,.43,1.58"/><path class="cls-8" d="M76.29,83.65a7,7,0,0,1,.42-1.19,10.9,10.9,0,0,1,.6-1.12,11.75,11.75,0,0,1,1.58-2,12.93,12.93,0,0,1,2-1.67c.36-.24.72-.47,1.09-.68l.28-.16.29-.15c.19-.1.37-.2.57-.29a17.3,17.3,0,0,1,2.4-.89l.62-.16.31-.07.31-.07.62-.12L88,75a16.88,16.88,0,0,1,5,.09c-1.64.3-3.25.58-4.81,1l-.58.15-.58.17c-.39.11-.76.24-1.14.36l-.56.21-.28.1-.28.12-.55.22-.54.25a19.73,19.73,0,0,0-4,2.49,16.91,16.91,0,0,0-1.77,1.62,15.29,15.29,0,0,0-1.57,1.89"/></g></svg>