<svg width="32" height="32" xmlns="http://www.w3.org/2000/svg" viewBox="0 0 24 24"><defs><style>.cls-1{fill:none;stroke:#fff;stroke-linecap:round;stroke-linejoin:round;stroke-width:1.3px;}</style></defs><g id="_5" data-name="5"><polygon class="cls-1" points="18.92 12.78 18.92 11.22 16.8 10.19 16.67 9.89 17.44 7.65 16.35 6.56 14.11 7.33 13.81 7.2 12.78 5.08 11.22 5.08 10.19 7.2 9.89 7.33 7.65 6.56 6.56 7.65 7.33 9.89 7.2 10.19 5.08 11.22 5.08 12.78 7.2 13.81 7.33 14.11 6.56 16.35 7.65 17.44 9.89 16.67 10.19 16.8 11.22 18.92 12.78 18.92 13.81 16.8 14.11 16.67 16.35 17.44 17.44 16.35 16.67 14.11 16.8 13.81 18.92 12.78"/><circle class="cls-1" cx="12" cy="12" r="2.53"/></g></svg>