<svg xmlns="http://www.w3.org/2000/svg" viewBox="0 0 24 24"><defs><style>.cls-1,.cls-2{fill:#ffffff;}.cls-2{stroke:#ffffff;stroke-miterlimit:10;stroke-width:0.25px;}</style></defs><g id="_10" data-name="10"><path class="cls-1" d="M12,5.25A6.75,6.75,0,1,1,5.25,12,6.76,6.76,0,0,1,12,5.25m0-1.5A8.25,8.25,0,1,0,20.25,12,8.26,8.26,0,0,0,12,3.75Z"/></g><g id="_5" data-name="5"><path class="cls-2" d="M11.11,8.52a.89.89,0,1,1,1.78,0,.89.89,0,0,1-1.78,0Z"/><path class="cls-1" d="M13.82,16a.4.4,0,0,1-.08.23.29.29,0,0,1-.26.14H10.71a.29.29,0,0,1-.25-.14.4.4,0,0,1-.08-.23.46.46,0,0,1,.08-.25.34.34,0,0,1,.23-.15,1.76,1.76,0,0,0,.46-.09.36.36,0,0,0,.16-.13.53.53,0,0,0,.06-.21c0-.13,0-.27,0-.45V12.8q0-.5,0-.81a1,1,0,0,0-.08-.4.32.32,0,0,0-.15-.13,2.42,2.42,0,0,0-.42-.08.32.32,0,0,1-.25-.15.43.43,0,0,1-.07-.23.37.37,0,0,1,.07-.23.32.32,0,0,1,.27-.16l.81-.12,1-.14a.4.4,0,0,1,.37.19.88.88,0,0,1,.06.26v3.87c0,.2,0,.36,0,.5a.61.61,0,0,0,.06.25.3.3,0,0,0,.13.12,1.32,1.32,0,0,0,.38.09.34.34,0,0,1,.24.15A.46.46,0,0,1,13.82,16Z"/></g></svg>